/videos/d9cc3330-ab13-4797-e3f0-0ccd24829082/hls1/main/41.ts

{"Protocol":0,"Id":"d9cc3330ab134797e3f00ccd24829082","Path":"/data/tvshows/Star Wars - The Clone Wars/Season 4/Star Wars - The Clone Wars - S04E06 - Nomad Droids Bluray-1080p.mp4","EncoderPath":null,"EncoderProtocol":null,"Type":0,"Container":"mov,mp4,m4a,3gp,3g2,mj2","Size":410218880,"Name":"Star Wars - The Clone Wars - S04E06 - Nomad Droids Bluray-1080p","IsRemote":false,"ETag":"6039d01668708e975c579405c4f1acbd","RunTimeTicks":13593669632,"ReadAtNativeFramerate":false,"IgnoreDts":false,"IgnoreIndex":false,"GenPtsInput":false,"SupportsTranscoding":true,"SupportsDirectStream":true,"SupportsDirectPlay":true,"IsInfiniteStream":false,"RequiresOpening":false,"OpenToken":null,"RequiresClosing":false,"LiveStreamId":null,"BufferMs":null,"RequiresLooping":false,"SupportsProbing":true,"VideoType":0,"IsoType":null,"Video3DFormat":null,"MediaStreams":[{"Codec":"subrip","CodecTag":null,"Language":"eng","ColorRange":null,"ColorSpace":null,"ColorTransfer":null,"ColorPrimaries":null,"DvVersionMajor":null,"DvVersionMinor":null,"DvProfile":null,"DvLevel":null,"RpuPresentFlag":null,"ElPresentFlag":null,"BlPresentFlag":null,"DvBlSignalCompatibilityId":null,"Comment":null,"TimeBase":"1/1000","CodecTimeBase":null,"Title":null,"VideoRange":null,"VideoRangeType":null,"VideoDoViTitle":null,"LocalizedUndefined":"Undefined","LocalizedDefault":"Default","LocalizedForced":"Forced","LocalizedExternal":"External","DisplayTitle":"English - SUBRIP - External","NalLengthSize":null,"IsInterlaced":false,"IsAVC":null,"ChannelLayout":null,"BitRate":null,"BitDepth":null,"RefFrames":null,"PacketLength":null,"Channels":null,"SampleRate":null,"IsDefault":false,"IsForced":false,"Height":null,"Width":null,"AverageFrameRate":null,"RealFrameRate":null,"Profile":null,"Type":2,"AspectRatio":null,"Index":0,"Score":null,"IsExternal":true,"DeliveryMethod":null,"DeliveryUrl":null,"IsExternalUrl":null,"IsTextSubtitleStream":true,"SupportsExternalStream":true,"Path":"/data/tvshows/Star Wars - The Clone Wars/Season 4/Star Wars - The Clone Wars - S04E06 - Nomad Droids Bluray-1080p.en.srt","PixelFormat":null,"Level":0,"IsAnamorphic":null},{"Codec":"h264","CodecTag":"avc1","Language":"und","ColorRange":null,"ColorSpace":null,"ColorTransfer":null,"ColorPrimaries":null,"DvVersionMajor":null,"DvVersionMinor":null,"DvProfile":null,"DvLevel":null,"RpuPresentFlag":null,"ElPresentFlag":null,"BlPresentFlag":null,"DvBlSignalCompatibilityId":null,"Comment":null,"TimeBase":"1/24000","CodecTimeBase":null,"Title":null,"VideoRange":"SDR","VideoRangeType":"SDR","VideoDoViTitle":null,"LocalizedUndefined":null,"LocalizedDefault":null,"LocalizedForced":null,"LocalizedExternal":null,"DisplayTitle":"1080p H264 SDR","NalLengthSize":"4","IsInterlaced":false,"IsAVC":true,"ChannelLayout":null,"BitRate":2073187,"BitDepth":10,"RefFrames":1,"PacketLength":null,"Channels":null,"SampleRate":null,"IsDefault":true,"IsForced":false,"Height":816,"Width":1920,"AverageFrameRate":23.976025,"RealFrameRate":23.976025,"Profile":"High 10","Type":1,"AspectRatio":"2.35:1","Index":1,"Score":null,"IsExternal":false,"DeliveryMethod":null,"DeliveryUrl":null,"IsExternalUrl":null,"IsTextSubtitleStream":false,"SupportsExternalStream":false,"Path":null,"PixelFormat":"yuv420p10le","Level":40,"IsAnamorphic":null},{"Codec":"mov_text","CodecTag":"tx3g","Language":"cze","ColorRange":null,"ColorSpace":null,"ColorTransfer":null,"ColorPrimaries":null,"DvVersionMajor":null,"DvVersionMinor":null,"DvProfile":null,"DvLevel":null,"RpuPresentFlag":null,"ElPresentFlag":null,"BlPresentFlag":null,"DvBlSignalCompatibilityId":null,"Comment":null,"TimeBase":"1/1000000","CodecTimeBase":null,"Title":null,"VideoRange":null,"VideoRangeType":null,"VideoDoViTitle":null,"LocalizedUndefined":"Undefined","LocalizedDefault":"Default","LocalizedForced":"Forced","LocalizedExternal":"External","DisplayTitle":"Cze - Default - MOV_TEXT","NalLengthSize":null,"IsInterlaced":false,"IsAVC":null,"ChannelLayout":null,"BitRate":62,"BitDepth":null,"RefFrames":null,"PacketLength":null,"Channels":null,"SampleRate":null,"IsDefault":true,"IsForced":false,"Height":null,"Width":null,"AverageFrameRate":null,"RealFrameRate":null,"Profile":null,"Type":2,"AspectRatio":null,"Index":2,"Score":null,"IsExternal":false,"DeliveryMethod":null,"DeliveryUrl":null,"IsExternalUrl":null,"IsTextSubtitleStream":true,"SupportsExternalStream":true,"Path":null,"PixelFormat":null,"Level":0,"IsAnamorphic":null},{"Codec":"mov_text","CodecTag":"tx3g","Language":"gre","ColorRange":null,"ColorSpace":null,"ColorTransfer":null,"ColorPrimaries":null,"DvVersionMajor":null,"DvVersionMinor":null,"DvProfile":null,"DvLevel":null,"RpuPresentFlag":null,"ElPresentFlag":null,"BlPresentFlag":null,"DvBlSignalCompatibilityId":null,"Comment":null,"TimeBase":"1/1000000","CodecTimeBase":null,"Title":null,"VideoRange":null,"VideoRangeType":null,"VideoDoViTitle":null,"LocalizedUndefined":"Undefined","LocalizedDefault":"Default","LocalizedForced":"Forced","LocalizedExternal":"External","DisplayTitle":"Gre - MOV_TEXT","NalLengthSize":null,"IsInterlaced":false,"IsAVC":null,"ChannelLayout":null,"BitRate":109,"BitDepth":null,"RefFrames":null,"PacketLength":null,"Channels":null,"SampleRate":null,"IsDefault":false,"IsForced":false,"Height":null,"Width":null,"AverageFrameRate":null,"RealFrameRate":null,"Profile":null,"Type":2,"AspectRatio":null,"Index":3,"Score":null,"IsExternal":false,"DeliveryMethod":null,"DeliveryUrl":null,"IsExternalUrl":null,"IsTextSubtitleStream":true,"SupportsExternalStream":true,"Path":null,"PixelFormat":null,"Level":0,"IsAnamorphic":null},{"Codec":"mov_text","CodecTag":"tx3g","Language":"eng","ColorRange":null,"ColorSpace":null,"ColorTransfer":null,"ColorPrimaries":null,"DvVersionMajor":null,"DvVersionMinor":null,"DvProfile":null,"DvLevel":null,"RpuPresentFlag":null,"ElPresentFlag":null,"BlPresentFlag":null,"DvBlSignalCompatibilityId":null,"Comment":null,"TimeBase":"1/1000000","CodecTimeBase":null,"Title":null,"VideoRange":null,"VideoRangeType":null,"VideoDoViTitle":null,"LocalizedUndefined":"Undefined","LocalizedDefault":"Default","LocalizedForced":"Forced","LocalizedExternal":"External","DisplayTitle":"English - MOV_TEXT","NalLengthSize":null,"IsInterlaced":false,"IsAVC":null,"ChannelLayout":null,"BitRate":74,"BitDepth":null,"RefFrames":null,"PacketLength":null,"Channels":null,"SampleRate":null,"IsDefault":false,"IsForced":false,"Height":null,"Width":null,"AverageFrameRate":null,"RealFrameRate":null,"Profile":null,"Type":2,"AspectRatio":null,"Index":4,"Score":null,"IsExternal":false,"DeliveryMethod":null,"DeliveryUrl":null,"IsExternalUrl":null,"IsTextSubtitleStream":true,"SupportsExternalStream":true,"Path":null,"PixelFormat":null,"Level":0,"IsAnamorphic":null},{"Codec":"mov_text","CodecTag":"tx3g","Language":"spa","ColorRange":null,"ColorSpace":null,"ColorTransfer":null,"ColorPrimaries":null,"DvVersionMajor":null,"DvVersionMinor":null,"DvProfile":null,"DvLevel":null,"RpuPresentFlag":null,"ElPresentFlag":null,"BlPresentFlag":null,"DvBlSignalCompatibilityId":null,"Comment":null,"TimeBase":"1/1000000","CodecTimeBase":null,"Title":null,"VideoRange":null,"VideoRangeType":null,"VideoDoViTitle":null,"LocalizedUndefined":"Undefined","LocalizedDefault":"Default","LocalizedForced":"Forced","LocalizedExternal":"External","DisplayTitle":"Spanish - MOV_TEXT","NalLengthSize":null,"IsInterlaced":false,"IsAVC":null,"ChannelLayout":null,"BitRate":66,"BitDepth":null,"RefFrames":null,"PacketLength":null,"Channels":null,"SampleRate":null,"IsDefault":false,"IsForced":false,"Height":null,"Width":null,"AverageFrameRate":null,"RealFrameRate":null,"Profile":null,"Type":2,"AspectRatio":null,"Index":5,"Score":null,"IsExternal":false,"DeliveryMethod":null,"DeliveryUrl":null,"IsExternalUrl":null,"IsTextSubtitleStream":true,"SupportsExternalStream":true,"Path":null,"PixelFormat":null,"Level":0,"IsAnamorphic":null},{"Codec":"mov_text","CodecTag":"tx3g","Language":"fin","ColorRange":null,"ColorSpace":null,"ColorTransfer":null,"ColorPrimaries":null,"DvVersionMajor":null,"DvVersionMinor":null,"DvProfile":null,"DvLevel":null,"RpuPresentFlag":null,"ElPresentFlag":null,"BlPresentFlag":null,"DvBlSignalCompatibilityId":null,"Comment":null,"TimeBase":"1/1000000","CodecTimeBase":null,"Title":null,"VideoRange":null,"VideoRangeType":null,"VideoDoViTitle":null,"LocalizedUndefined":"Undefined","LocalizedDefault":"Default","LocalizedForced":"Forced","LocalizedExternal":"External","DisplayTitle":"Finnish - MOV_TEXT","NalLengthSize":null,"IsInterlaced":false,"IsAVC":null,"ChannelLayout":null,"BitRate":66,"BitDepth":null,"RefFrames":null,"PacketLength":null,"Channels":null,"SampleRate":null,"IsDefault":false,"IsForced":false,"Height":null,"Width":null,"AverageFrameRate":null,"RealFrameRate":null,"Profile":null,"Type":2,"AspectRatio":null,"Index":6,"Score":null,"IsExternal":false,"DeliveryMethod":null,"DeliveryUrl":null,"IsExternalUrl":null,"IsTextSubtitleStream":true,"SupportsExternalStream":true,"Path":null,"PixelFormat":null,"Level":0,"IsAnamorphic":null},{"Codec":"mov_text","CodecTag":"tx3g","Language":"hun","ColorRange":null,"ColorSpace":null,"ColorTransfer":null,"ColorPrimaries":null,"DvVersionMajor":null,"DvVersionMinor":null,"DvProfile":null,"DvLevel":null,"RpuPresentFlag":null,"ElPresentFlag":null,"BlPresentFlag":null,"DvBlSignalCompatibilityId":null,"Comment":null,"TimeBase":"1/1000000","CodecTimeBase":null,"Title":null,"VideoRange":null,"VideoRangeType":null,"VideoDoViTitle":null,"LocalizedUndefined":"Undefined","LocalizedDefault":"Default","LocalizedForced":"Forced","LocalizedExternal":"External","DisplayTitle":"Hungarian - MOV_TEXT","NalLengthSize":null,"IsInterlaced":false,"IsAVC":null,"ChannelLayout":null,"BitRate":62,"BitDepth":null,"RefFrames":null,"PacketLength":null,"Channels":null,"SampleRate":null,"IsDefault":false,"IsForced":false,"Height":null,"Width":null,"AverageFrameRate":null,"RealFrameRate":null,"Profile":null,"Type":2,"AspectRatio":null,"Index":7,"Score":null,"IsExternal":false,"DeliveryMethod":null,"DeliveryUrl":null,"IsExternalUrl":null,"IsTextSubtitleStream":true,"SupportsExternalStream":true,"Path":null,"PixelFormat":null,"Level":0,"IsAnamorphic":null},{"Codec":"mov_text","CodecTag":"tx3g","Language":"jpn","ColorRange":null,"ColorSpace":null,"ColorTransfer":null,"ColorPrimaries":null,"DvVersionMajor":null,"DvVersionMinor":null,"DvProfile":null,"DvLevel":null,"RpuPresentFlag":null,"ElPresentFlag":null,"BlPresentFlag":null,"DvBlSignalCompatibilityId":null,"Comment":null,"TimeBase":"1/1000000","CodecTimeBase":null,"Title":null,"VideoRange":null,"VideoRangeType":null,"VideoDoViTitle":null,"LocalizedUndefined":"Undefined","LocalizedDefault":"Default","LocalizedForced":"Forced","LocalizedExternal":"External","DisplayTitle":"Japanese - MOV_TEXT","NalLengthSize":null,"IsInterlaced":false,"IsAVC":null,"ChannelLayout":null,"BitRate":57,"BitDepth":null,"RefFrames":null,"PacketLength":null,"Channels":null,"SampleRate":null,"IsDefault":false,"IsForced":false,"Height":null,"Width":null,"AverageFrameRate":null,"RealFrameRate":null,"Profile":null,"Type":2,"AspectRatio":null,"Index":8,"Score":null,"IsExternal":false,"DeliveryMethod":null,"DeliveryUrl":null,"IsExternalUrl":null,"IsTextSubtitleStream":true,"SupportsExternalStream":true,"Path":null,"PixelFormat":null,"Level":0,"IsAnamorphic":null},{"Codec":"mov_text","CodecTag":"tx3g","Language":"kor","ColorRange":null,"ColorSpace":null,"ColorTransfer":null,"ColorPrimaries":null,"DvVersionMajor":null,"DvVersionMinor":null,"DvProfile":null,"DvLevel":null,"RpuPresentFlag":null,"ElPresentFlag":null,"BlPresentFlag":null,"DvBlSignalCompatibilityId":null,"Comment":null,"TimeBase":"1/1000000","CodecTimeBase":null,"Title":null,"VideoRange":null,"VideoRangeType":null,"VideoDoViTitle":null,"LocalizedUndefined":"Undefined","LocalizedDefault":"Default","LocalizedForced":"Forced","LocalizedExternal":"External","DisplayTitle":"Korean - MOV_TEXT","NalLengthSize":null,"IsInterlaced":false,"IsAVC":null,"ChannelLayout":null,"BitRate":68,"BitDepth":null,"RefFrames":null,"PacketLength":null,"Channels":null,"SampleRate":null,"IsDefault":false,"IsForced":false,"Height":null,"Width":null,"AverageFrameRate":null,"RealFrameRate":null,"Profile":null,"Type":2,"AspectRatio":null,"Index":9,"Score":null,"IsExternal":false,"DeliveryMethod":null,"DeliveryUrl":null,"IsExternalUrl":null,"IsTextSubtitleStream":true,"SupportsExternalStream":true,"Path":null,"PixelFormat":null,"Level":0,"IsAnamorphic":null},{"Codec":"mov_text","CodecTag":"tx3g","Language":"pol","ColorRange":null,"ColorSpace":null,"ColorTransfer":null,"ColorPrimaries":null,"DvVersionMajor":null,"DvVersionMinor":null,"DvProfile":null,"DvLevel":null,"RpuPresentFlag":null,"ElPresentFlag":null,"BlPresentFlag":null,"DvBlSignalCompatibilityId":null,"Comment":null,"TimeBase":"1/1000000","CodecTimeBase":null,"Title":null,"VideoRange":null,"VideoRangeType":null,"VideoDoViTitle":null,"LocalizedUndefined":"Undefined","LocalizedDefault":"Default","LocalizedForced":"Forced","LocalizedExternal":"External","DisplayTitle":"Polish - MOV_TEXT","NalLengthSize":null,"IsInterlaced":false,"IsAVC":null,"ChannelLayout":null,"BitRate":69,"BitDepth":null,"RefFrames":null,"PacketLength":null,"Channels":null,"SampleRate":null,"IsDefault":false,"IsForced":false,"Height":null,"Width":null,"AverageFrameRate":null,"RealFrameRate":null,"Profile":null,"Type":2,"AspectRatio":null,"Index":10,"Score":null,"IsExternal":false,"DeliveryMethod":null,"DeliveryUrl":null,"IsExternalUrl":null,"IsTextSubtitleStream":true,"SupportsExternalStream":true,"Path":null,"PixelFormat":null,"Level":0,"IsAnamorphic":null},{"Codec":"mov_text","CodecTag":"tx3g","Language":"por","ColorRange":null,"ColorSpace":null,"ColorTransfer":null,"ColorPrimaries":null,"DvVersionMajor":null,"DvVersionMinor":null,"DvProfile":null,"DvLevel":null,"RpuPresentFlag":null,"ElPresentFlag":null,"BlPresentFlag":null,"DvBlSignalCompatibilityId":null,"Comment":null,"TimeBase":"1/1000000","CodecTimeBase":null,"Title":null,"VideoRange":null,"VideoRangeType":null,"VideoDoViTitle":null,"LocalizedUndefined":"Undefined","LocalizedDefault":"Default","LocalizedForced":"Forced","LocalizedExternal":"External","DisplayTitle":"Portuguese - MOV_TEXT","NalLengthSize":null,"IsInterlaced":false,"IsAVC":null,"ChannelLayout":null,"BitRate":64,"BitDepth":null,"RefFrames":null,"PacketLength":null,"Channels":null,"SampleRate":null,"IsDefault":false,"IsForced":false,"Height":null,"Width":null,"AverageFrameRate":null,"RealFrameRate":null,"Profile":null,"Type":2,"AspectRatio":null,"Index":11,"Score":null,"IsExternal":false,"DeliveryMethod":null,"DeliveryUrl":null,"IsExternalUrl":null,"IsTextSubtitleStream":true,"SupportsExternalStream":true,"Path":null,"PixelFormat":null,"Level":0,"IsAnamorphic":null},{"Codec":"mov_text","CodecTag":"tx3g","Language":"rum","ColorRange":null,"ColorSpace":null,"ColorTransfer":null,"ColorPrimaries":null,"DvVersionMajor":null,"DvVersionMinor":null,"DvProfile":null,"DvLevel":null,"RpuPresentFlag":null,"ElPresentFlag":null,"BlPresentFlag":null,"DvBlSignalCompatibilityId":null,"Comment":null,"TimeBase":"1/1000000","CodecTimeBase":null,"Title":null,"VideoRange":null,"VideoRangeType":null,"VideoDoViTitle":null,"LocalizedUndefined":"Undefined","LocalizedDefault":"Default","LocalizedForced":"Forced","LocalizedExternal":"External","DisplayTitle":"Rum - MOV_TEXT","NalLengthSize":null,"IsInterlaced":false,"IsAVC":null,"ChannelLayout":null,"BitRate":65,"BitDepth":null,"RefFrames":null,"PacketLength":null,"Channels":null,"SampleRate":null,"IsDefault":false,"IsForced":false,"Height":null,"Width":null,"AverageFrameRate":null,"RealFrameRate":null,"Profile":null,"Type":2,"AspectRatio":null,"Index":12,"Score":null,"IsExternal":false,"DeliveryMethod":null,"DeliveryUrl":null,"IsExternalUrl":null,"IsTextSubtitleStream":true,"SupportsExternalStream":true,"Path":null,"PixelFormat":null,"Level":0,"IsAnamorphic":null},{"Codec":"mov_text","CodecTag":"tx3g","Language":"tur","ColorRange":null,"ColorSpace":null,"ColorTransfer":null,"ColorPrimaries":null,"DvVersionMajor":null,"DvVersionMinor":null,"DvProfile":null,"DvLevel":null,"RpuPresentFlag":null,"ElPresentFlag":null,"BlPresentFlag":null,"DvBlSignalCompatibilityId":null,"Comment":null,"TimeBase":"1/1000000","CodecTimeBase":null,"Title":null,"VideoRange":null,"VideoRangeType":null,"VideoDoViTitle":null,"LocalizedUndefined":"Undefined","LocalizedDefault":"Default","LocalizedForced":"Forced","LocalizedExternal":"External","DisplayTitle":"Turkish - MOV_TEXT","NalLengthSize":null,"IsInterlaced":false,"IsAVC":null,"ChannelLayout":null,"BitRate":60,"BitDepth":null,"RefFrames":null,"PacketLength":null,"Channels":null,"SampleRate":null,"IsDefault":false,"IsForced":false,"Height":null,"Width":null,"AverageFrameRate":null,"RealFrameRate":null,"Profile":null,"Type":2,"AspectRatio":null,"Index":13,"Score":null,"IsExternal":false,"DeliveryMethod":null,"DeliveryUrl":null,"IsExternalUrl":null,"IsTextSubtitleStream":true,"SupportsExternalStream":true,"Path":null,"PixelFormat":null,"Level":0,"IsAnamorphic":null},{"Codec":"mov_text","CodecTag":"tx3g","Language":"chi","ColorRange":null,"ColorSpace":null,"ColorTransfer":null,"ColorPrimaries":null,"DvVersionMajor":null,"DvVersionMinor":null,"DvProfile":null,"DvLevel":null,"RpuPresentFlag":null,"ElPresentFlag":null,"BlPresentFlag":null,"DvBlSignalCompatibilityId":null,"Comment":null,"TimeBase":"1/1000000","CodecTimeBase":null,"Title":null,"VideoRange":null,"VideoRangeType":null,"VideoDoViTitle":null,"LocalizedUndefined":"Undefined","LocalizedDefault":"Default","LocalizedForced":"Forced","LocalizedExternal":"External","DisplayTitle":"Chi - MOV_TEXT","NalLengthSize":null,"IsInterlaced":false,"IsAVC":null,"ChannelLayout":null,"BitRate":55,"BitDepth":null,"RefFrames":null,"PacketLength":null,"Channels":null,"SampleRate":null,"IsDefault":false,"IsForced":false,"Height":null,"Width":null,"AverageFrameRate":null,"RealFrameRate":null,"Profile":null,"Type":2,"AspectRatio":null,"Index":14,"Score":null,"IsExternal":false,"DeliveryMethod":null,"DeliveryUrl":null,"IsExternalUrl":null,"IsTextSubtitleStream":true,"SupportsExternalStream":true,"Path":null,"PixelFormat":null,"Level":0,"IsAnamorphic":null},{"Codec":"mov_text","CodecTag":"tx3g","Language":"chi","ColorRange":null,"ColorSpace":null,"ColorTransfer":null,"ColorPrimaries":null,"DvVersionMajor":null,"DvVersionMinor":null,"DvProfile":null,"DvLevel":null,"RpuPresentFlag":null,"ElPresentFlag":null,"BlPresentFlag":null,"DvBlSignalCompatibilityId":null,"Comment":null,"TimeBase":"1/1000000","CodecTimeBase":null,"Title":null,"VideoRange":null,"VideoRangeType":null,"VideoDoViTitle":null,"LocalizedUndefined":"Undefined","LocalizedDefault":"Default","LocalizedForced":"Forced","LocalizedExternal":"External","DisplayTitle":"Chi - MOV_TEXT","NalLengthSize":null,"IsInterlaced":false,"IsAVC":null,"ChannelLayout":null,"BitRate":59,"BitDepth":null,"RefFrames":null,"PacketLength":null,"Channels":null,"SampleRate":null,"IsDefault":false,"IsForced":false,"Height":null,"Width":null,"AverageFrameRate":null,"RealFrameRate":null,"Profile":null,"Type":2,"AspectRatio":null,"Index":15,"Score":null,"IsExternal":false,"DeliveryMethod":null,"DeliveryUrl":null,"IsExternalUrl":null,"IsTextSubtitleStream":true,"SupportsExternalStream":true,"Path":null,"PixelFormat":null,"Level":0,"IsAnamorphic":null},{"Codec":"mov_text","CodecTag":"tx3g","Language":"chi","ColorRange":null,"ColorSpace":null,"ColorTransfer":null,"ColorPrimaries":null,"DvVersionMajor":null,"DvVersionMinor":null,"DvProfile":null,"DvLevel":null,"RpuPresentFlag":null,"ElPresentFlag":null,"BlPresentFlag":null,"DvBlSignalCompatibilityId":null,"Comment":null,"TimeBase":"1/1000000","CodecTimeBase":null,"Title":null,"VideoRange":null,"VideoRangeType":null,"VideoDoViTitle":null,"LocalizedUndefined":"Undefined","LocalizedDefault":"Default","LocalizedForced":"Forced","LocalizedExternal":"External","DisplayTitle":"Chi - MOV_TEXT","NalLengthSize":null,"IsInterlaced":false,"IsAVC":null,"ChannelLayout":null,"BitRate":55,"BitDepth":null,"RefFrames":null,"PacketLength":null,"Channels":null,"SampleRate":null,"IsDefault":false,"IsForced":false,"Height":null,"Width":null,"AverageFrameRate":null,"RealFrameRate":null,"Profile":null,"Type":2,"AspectRatio":null,"Index":16,"Score":null,"IsExternal":false,"DeliveryMethod":null,"DeliveryUrl":null,"IsExternalUrl":null,"IsTextSubtitleStream":true,"SupportsExternalStream":true,"Path":null,"PixelFormat":null,"Level":0,"IsAnamorphic":null},{"Codec":"aac","CodecTag":"mp4a","Language":"eng","ColorRange":null,"ColorSpace":null,"ColorTransfer":null,"ColorPrimaries":null,"DvVersionMajor":null,"DvVersionMinor":null,"DvProfile":null,"DvLevel":null,"RpuPresentFlag":null,"ElPresentFlag":null,"BlPresentFlag":null,"DvBlSignalCompatibilityId":null,"Comment":null,"TimeBase":"1/48000","CodecTimeBase":null,"Title":null,"VideoRange":null,"VideoRangeType":null,"VideoDoViTitle":null,"LocalizedUndefined":null,"LocalizedDefault":null,"LocalizedForced":null,"LocalizedExternal":null,"DisplayTitle":"English - AAC - 5.1 - Default","NalLengthSize":null,"IsInterlaced":false,"IsAVC":null,"ChannelLayout":"5.1","BitRate":339604,"BitDepth":null,"RefFrames":null,"PacketLength":null,"Channels":6,"SampleRate":48000,"IsDefault":true,"IsForced":false,"Height":null,"Width":null,"AverageFrameRate":null,"RealFrameRate":null,"Profile":"LC","Type":0,"AspectRatio":null,"Index":17,"Score":null,"IsExternal":false,"DeliveryMethod":null,"DeliveryUrl":null,"IsExternalUrl":null,"IsTextSubtitleStream":false,"SupportsExternalStream":false,"Path":null,"PixelFormat":null,"Level":0,"IsAnamorphic":null},{"Codec":"bin_data","CodecTag":"text","Language":"eng","ColorRange":null,"ColorSpace":null,"ColorTransfer":null,"ColorPrimaries":null,"DvVersionMajor":null,"DvVersionMinor":null,"DvProfile":null,"DvLevel":null,"RpuPresentFlag":null,"ElPresentFlag":null,"BlPresentFlag":null,"DvBlSignalCompatibilityId":null,"Comment":null,"TimeBase":"1/1000","CodecTimeBase":null,"Title":null,"VideoRange":null,"VideoRangeType":null,"VideoDoViTitle":null,"LocalizedUndefined":null,"LocalizedDefault":null,"LocalizedForced":null,"LocalizedExternal":null,"DisplayTitle":null,"NalLengthSize":null,"IsInterlaced":false,"IsAVC":null,"ChannelLayout":null,"BitRate":null,"BitDepth":null,"RefFrames":null,"PacketLength":null,"Channels":null,"SampleRate":null,"IsDefault":false,"IsForced":false,"Height":null,"Width":null,"AverageFrameRate":null,"RealFrameRate":null,"Profile":null,"Type":4,"AspectRatio":null,"Index":18,"Score":null,"IsExternal":false,"DeliveryMethod":null,"DeliveryUrl":null,"IsExternalUrl":null,"IsTextSubtitleStream":false,"SupportsExternalStream":false,"Path":null,"PixelFormat":null,"Level":0,"IsAnamorphic":null}],"MediaAttachments":[],"Formats":[],"Bitrate":2414175,"Timestamp":null,"RequiredHttpHeaders":{},"TranscodingUrl":null,"TranscodingSubProtocol":null,"TranscodingContainer":null,"AnalyzeDurationMs":null,"DefaultAudioStreamIndex":null,"DefaultSubtitleStreamIndex":null}

/usr/lib/jellyfin-ffmpeg/ffmpeg -analyzeduration 200M -ss 00:04:06.000 -fflags +genpts -f mov,mp4,m4a,3gp,3g2,mj2  -i file:"/data/tvshows/Star Wars - The Clone Wars/Season 4/Star Wars - The Clone Wars - S04E06 - Nomad Droids Bluray-1080p.mp4" -map_metadata -1 -map_chapters -1 -threads 0 -map 0:0 -map 0:16 -map -0:s -codec:v:0 copy -bsf:v h264_mp4toannexb -start_at_zero -codec:a:0 libfdk_aac -ac 6 -ab 128000 -ar 48000 -copyts -avoid_negative_ts disabled -max_muxing_queue_size 2048 -f hls -max_delay 5000000 -hls_time 6 -hls_segment_type mpegts -start_number 41 -hls_segment_filename "/config/data/transcodes/9a4aaecb649a9722eec5580a7dc0c1a5%d.ts" -hls_playlist_type vod -hls_list_size 0 -y "/config/data/transcodes/9a4aaecb649a9722eec5580a7dc0c1a5.m3u8"


ffmpeg version 5.1.3-Jellyfin Copyright (c) 2000-2022 the FFmpeg developers
  built with gcc 11 (Ubuntu 11.3.0-1ubuntu1~22.04.1)
  configuration: --prefix=/usr/lib/jellyfin-ffmpeg --target-os=linux --extra-libs=-lfftw3f --extra-version=Jellyfin --disable-doc --disable-ffplay --disable-ptx-compression --disable-static --disable-libxcb --disable-sdl2 --disable-xlib --enable-lto --enable-gpl --enable-version3 --enable-shared --enable-gmp --enable-gnutls --enable-chromaprint --enable-libdrm --enable-libass --enable-libfreetype --enable-libfribidi --enable-libfontconfig --enable-libbluray --enable-libmp3lame --enable-libopus --enable-libtheora --enable-libvorbis --enable-libopenmpt --enable-libdav1d --enable-libwebp --enable-libvpx --enable-libx264 --enable-libx265 --enable-libzvbi --enable-libzimg --enable-libfdk-aac --arch=amd64 --enable-libsvtav1 --enable-libshaderc --enable-libplacebo --enable-vulkan --enable-opencl --enable-vaapi --enable-amf --enable-libmfx --enable-ffnvcodec --enable-cuda --enable-cuda-llvm --enable-cuvid --enable-nvdec --enable-nvenc
  libavutil      57. 28.100 / 57. 28.100
  libavcodec     59. 37.100 / 59. 37.100
  libavformat    59. 27.100 / 59. 27.100
  libavdevice    59.  7.100 / 59.  7.100
  libavfilter     8. 44.100 /  8. 44.100
  libswscale      6.  7.100 /  6.  7.100
  libswresample   4.  7.100 /  4.  7.100
  libpostproc    56.  6.100 / 56.  6.100
Input #0, mov,mp4,m4a,3gp,3g2,mj2, from 'file:/data/tvshows/Star Wars - The Clone Wars/Season 4/Star Wars - The Clone Wars - S04E06 - Nomad Droids Bluray-1080p.mp4':
  Metadata:
    major_brand     : isom
    minor_version   : 512
    compatible_brands: isomiso2avc1mp41
    encoder         : Lavf60.3.100
  Duration: 00:22:39.37, start: 0.000000, bitrate: 2414 kb/s
  Chapters:
    Chapter #0:0: start 0.000000, end 486.410000
      Metadata:
        title           :  Chapter 1
    Chapter #0:1: start 486.410000, end 1001.132000
      Metadata:
        title           :  Chapter 2
    Chapter #0:2: start 1001.132000, end 1315.988000
      Metadata:
        title           :  Chapter 3
    Chapter #0:3: start 1315.988000, end 1359.367000
      Metadata:
        title           :  Chapter 4
  Stream #0:0[0x1](und): Video: h264 (High 10) (avc1 / 0x31637661), yuv420p10le(progressive), 1920x816 [SAR 1:1 DAR 40:17], 2073 kb/s, 23.98 fps, 23.98 tbr, 24k tbn (default)
    Metadata:
      handler_name    : VideoHandler
      vendor_id       : [0][0][0][0]
      encoder         : Lavc60.3.100 libx264
  Stream #0:1[0x2](cze): Subtitle: mov_text (tx3g / 0x67337874), 0 kb/s (default)
    Metadata:
      handler_name    : SubtitleHandler
  Stream #0:2[0x3](gre): Subtitle: mov_text (tx3g / 0x67337874), 0 kb/s
    Metadata:
      handler_name    : SubtitleHandler
  Stream #0:3[0x4](eng): Subtitle: mov_text (tx3g / 0x67337874), 0 kb/s (hearing impaired) (captions)
    Metadata:
      handler_name    : SubtitleHandler
  Stream #0:4[0x5](spa): Subtitle: mov_text (tx3g / 0x67337874), 0 kb/s
    Metadata:
      handler_name    : SubtitleHandler
  Stream #0:5[0x6](fin): Subtitle: mov_text (tx3g / 0x67337874), 0 kb/s
    Metadata:
      handler_name    : SubtitleHandler
  Stream #0:6[0x7](hun): Subtitle: mov_text (tx3g / 0x67337874), 0 kb/s
    Metadata:
      handler_name    : SubtitleHandler
  Stream #0:7[0x8](jpn): Subtitle: mov_text (tx3g / 0x67337874), 0 kb/s
    Metadata:
      handler_name    : SubtitleHandler
  Stream #0:8[0x9](kor): Subtitle: mov_text (tx3g / 0x67337874), 0 kb/s
    Metadata:
      handler_name    : SubtitleHandler
  Stream #0:9[0xa](pol): Subtitle: mov_text (tx3g / 0x67337874), 0 kb/s
    Metadata:
      handler_name    : SubtitleHandler
  Stream #0:10[0xb](por): Subtitle: mov_text (tx3g / 0x67337874), 0 kb/s
    Metadata:
      handler_name    : SubtitleHandler
  Stream #0:11[0xc](rum): Subtitle: mov_text (tx3g / 0x67337874), 0 kb/s
    Metadata:
      handler_name    : SubtitleHandler
  Stream #0:12[0xd](tur): Subtitle: mov_text (tx3g / 0x67337874), 0 kb/s
    Metadata:
      handler_name    : SubtitleHandler
  Stream #0:13[0xe](chi): Subtitle: mov_text (tx3g / 0x67337874), 0 kb/s
    Metadata:
      handler_name    : SubtitleHandler
  Stream #0:14[0xf](chi): Subtitle: mov_text (tx3g / 0x67337874), 0 kb/s
    Metadata:
      handler_name    : SubtitleHandler
  Stream #0:15[0x10](chi): Subtitle: mov_text (tx3g / 0x67337874), 0 kb/s
    Metadata:
      handler_name    : SubtitleHandler
  Stream #0:16[0x11](eng): Audio: aac (LC) (mp4a / 0x6134706D), 48000 Hz, 5.1, fltp, 339 kb/s (default)
    Metadata:
      handler_name    : SoundHandler
      vendor_id       : [0][0][0][0]
  Stream #0:17[0x12](eng): Data: bin_data (text / 0x74786574)
    Metadata:
      handler_name    : SubtitleHandler
Stream mapping:
  Stream #0:0 -> #0:0 (copy)
  Stream #0:16 -> #0:1 (aac (native) -> aac (libfdk_aac))
Press [q] to stop, [?] for help
Output #0, hls, to '/config/data/transcodes/9a4aaecb649a9722eec5580a7dc0c1a5.m3u8':
  Metadata:
    encoder         : Lavf59.27.100
  Stream #0:0: Video: h264 (High 10) (avc1 / 0x31637661), yuv420p10le(progressive), 1920x816 [SAR 1:1 DAR 40:17], q=2-31, 2073 kb/s, 23.98 fps, 23.98 tbr, 90k tbn (default)
  Stream #0:1: Audio: aac, 48000 Hz, 5.1, s16, 128 kb/s (default)
    Metadata:
      encoder         : Lavc59.37.100 libfdk_aac
frame=    0 fps=0.0 q=-1.0 size=N/A time=00:00:00.00 bitrate=N/A speed=   0x    
frame=  218 fps=0.0 q=-1.0 size=N/A time=-00:00:00.02 bitrate=N/A speed=N/A    
[hls @ 0x55cbdae5cb80] Opening '/config/data/transcodes/9a4aaecb649a9722eec5580a7dc0c1a541.ts' for writing
[hls @ 0x55cbdae5cb80] Opening '/config/data/transcodes/9a4aaecb649a9722eec5580a7dc0c1a542.ts' for writing
[hls @ 0x55cbdae5cb80] Opening '/config/data/transcodes/9a4aaecb649a9722eec5580a7dc0c1a543.ts' for writing
frame=  534 fps=534 q=-1.0 size=N/A time=00:00:13.15 bitrate=N/A speed=13.2x    
[hls @ 0x55cbdae5cb80] Opening '/config/data/transcodes/9a4aaecb649a9722eec5580a7dc0c1a544.ts' for writing
frame=  666 fps=432 q=-1.0 size=N/A time=00:00:18.68 bitrate=N/A speed=12.1x    
[hls @ 0x55cbdae5cb80] Opening '/config/data/transcodes/9a4aaecb649a9722eec5580a7dc0c1a545.ts' for writing
frame=  766 fps=375 q=-1.0 size=N/A time=00:00:22.82 bitrate=N/A speed=11.2x    
[hls @ 0x55cbdae5cb80] Opening '/config/data/transcodes/9a4aaecb649a9722eec5580a7dc0c1a546.ts' for writing
frame=  917 fps=360 q=-1.0 size=N/A time=00:00:29.11 bitrate=N/A speed=11.4x    
[hls @ 0x55cbdae5cb80] Opening '/config/data/transcodes/9a4aaecb649a9722eec5580a7dc0c1a547.ts' for writing
frame= 1098 fps=360 q=-1.0 size=N/A time=00:00:36.66 bitrate=N/A speed=  12x    
[hls @ 0x55cbdae5cb80] Opening '/config/data/transcodes/9a4aaecb649a9722eec5580a7dc0c1a548.ts' for writing
frame= 1178 fps=322 q=-1.0 size=N/A time=00:00:39.99 bitrate=N/A speed=10.9x    
frame= 1227 fps=295 q=-1.0 size=N/A time=00:00:42.04 bitrate=N/A speed=10.1x    
frame= 1267 fps=272 q=-1.0 size=N/A time=00:00:43.75 bitrate=N/A speed=9.39x    
[hls @ 0x55cbdae5cb80] Opening '/config/data/transcodes/9a4aaecb649a9722eec5580a7dc0c1a549.ts' for writing
frame= 1333 fps=258 q=-1.0 size=N/A time=00:00:46.46 bitrate=N/A speed=   9x    
frame= 1350 fps=238 q=-1.0 size=N/A time=00:00:47.18 bitrate=N/A speed=8.33x    
frame= 1386 fps=221 q=-1.0 size=N/A time=00:00:48.70 bitrate=N/A speed=7.77x    
frame= 1428 fps=211 q=-1.0 size=N/A time=00:00:50.45 bitrate=N/A speed=7.46x    
frame= 1452 fps=200 q=-1.0 size=N/A time=00:00:51.43 bitrate=N/A speed=7.08x    
[hls @ 0x55cbdae5cb80] Opening '/config/data/transcodes/9a4aaecb649a9722eec5580a7dc0c1a550.ts' for writing
frame= 1562 fps=201 q=-1.0 size=N/A time=00:00:56.01 bitrate=N/A speed=7.21x    
[hls @ 0x55cbdae5cb80] Opening '/config/data/transcodes/9a4aaecb649a9722eec5580a7dc0c1a551.ts' for writing
[hls @ 0x55cbdae5cb80] Opening '/config/data/transcodes/9a4aaecb649a9722eec5580a7dc0c1a552.ts' for writing
frame= 1767 fps=214 q=-1.0 size=N/A time=00:01:04.61 bitrate=N/A speed=7.82x    
[hls @ 0x55cbdae5cb80] Opening '/config/data/transcodes/9a4aaecb649a9722eec5580a7dc0c1a553.ts' for writing
frame= 1990 fps=227 q=-1.0 size=N/A time=00:01:13.91 bitrate=N/A speed=8.43x    
[hls @ 0x55cbdae5cb80] Opening '/config/data/transcodes/9a4aaecb649a9722eec5580a7dc0c1a554.ts' for writing
frame= 2119 fps=229 q=-1.0 size=N/A time=00:01:19.29 bitrate=N/A speed=8.56x    
frame= 2245 fps=230 q=-1.0 size=N/A time=00:01:24.51 bitrate=N/A speed=8.65x    
frame= 2328 fps=227 q=-1.0 size=N/A time=00:01:28.01 bitrate=N/A speed=8.57x    
[hls @ 0x55cbdae5cb80] Opening '/config/data/transcodes/9a4aaecb649a9722eec5580a7dc0c1a555.ts' for writing
frame= 2370 fps=220 q=-1.0 size=N/A time=00:01:29.72 bitrate=N/A speed=8.33x    
[hls @ 0x55cbdae5cb80] Opening '/config/data/transcodes/9a4aaecb649a9722eec5580a7dc0c1a556.ts' for writing
[hls @ 0x55cbdae5cb80] Opening '/config/data/transcodes/9a4aaecb649a9722eec5580a7dc0c1a557.ts' for writing
frame= 2577 fps=229 q=-1.0 size=N/A time=00:01:38.40 bitrate=N/A speed=8.73x    
[hls @ 0x55cbdae5cb80] Opening '/config/data/transcodes/9a4aaecb649a9722eec5580a7dc0c1a558.ts' for writing
[hls @ 0x55cbdae5cb80] Opening '/config/data/transcodes/9a4aaecb649a9722eec5580a7dc0c1a559.ts' for writing
frame= 2877 fps=244 q=-1.0 size=N/A time=00:01:50.90 bitrate=N/A speed=9.42x    
[hls @ 0x55cbdae5cb80] Opening '/config/data/transcodes/9a4aaecb649a9722eec5580a7dc0c1a560.ts' for writing
frame= 3026 fps=246 q=-1.0 size=N/A time=00:01:57.07 bitrate=N/A speed=9.53x    
[hls @ 0x55cbdae5cb80] Opening '/config/data/transcodes/9a4aaecb649a9722eec5580a7dc0c1a561.ts' for writing
frame= 3189 fps=249 q=-1.0 size=N/A time=00:02:03.90 bitrate=N/A speed=9.69x    
[hls @ 0x55cbdae5cb80] Opening '/config/data/transcodes/9a4aaecb649a9722eec5580a7dc0c1a562.ts' for writing
frame= 3277 fps=245 q=-1.0 size=N/A time=00:02:07.59 bitrate=N/A speed=9.53x    
frame= 3375 fps=243 q=-1.0 size=N/A time=00:02:11.64 bitrate=N/A speed=9.48x    
[hls @ 0x55cbdae5cb80] Opening '/config/data/transcodes/9a4aaecb649a9722eec5580a7dc0c1a563.ts' for writing
frame= 3490 fps=243 q=-1.0 size=N/A time=00:02:16.44 bitrate=N/A speed=9.48x    
[hls @ 0x55cbdae5cb80] Opening '/config/data/transcodes/9a4aaecb649a9722eec5580a7dc0c1a564.ts' for writing
[hls @ 0x55cbdae5cb80] Opening '/config/data/transcodes/9a4aaecb649a9722eec5580a7dc0c1a565.ts' for writing
frame= 3685 fps=247 q=-1.0 size=N/A time=00:02:24.61 bitrate=N/A speed=9.71x    
[hls @ 0x55cbdae5cb80] Opening '/config/data/transcodes/9a4aaecb649a9722eec5580a7dc0c1a566.ts' for writing
frame= 3848 fps=250 q=-1.0 size=N/A time=00:02:31.39 bitrate=N/A speed=9.84x    
[hls @ 0x55cbdae5cb80] Opening '/config/data/transcodes/9a4aaecb649a9722eec5580a7dc0c1a567.ts' for writing
frame= 4053 fps=255 q=-1.0 size=N/A time=00:02:39.95 bitrate=N/A speed=10.1x    
[hls @ 0x55cbdae5cb80] Opening '/config/data/transcodes/9a4aaecb649a9722eec5580a7dc0c1a568.ts' for writing
frame= 4188 fps=255 q=-1.0 size=N/A time=00:02:45.54 bitrate=N/A speed=10.1x    
[hls @ 0x55cbdae5cb80] Opening '/config/data/transcodes/9a4aaecb649a9722eec5580a7dc0c1a569.ts' for writing
frame= 4431 fps=262 q=-1.0 size=N/A time=00:02:55.71 bitrate=N/A speed=10.4x    
[hls @ 0x55cbdae5cb80] Opening '/config/data/transcodes/9a4aaecb649a9722eec5580a7dc0c1a570.ts' for writing
[hls @ 0x55cbdae5cb80] Opening '/config/data/transcodes/9a4aaecb649a9722eec5580a7dc0c1a571.ts' for writing
frame= 4535 fps=261 q=-1.0 size=N/A time=00:03:00.07 bitrate=N/A speed=10.4x    
[hls @ 0x55cbdae5cb80] Opening '/config/data/transcodes/9a4aaecb649a9722eec5580a7dc0c1a572.ts' for writing
frame= 4663 fps=261 q=-1.0 size=N/A time=00:03:05.40 bitrate=N/A speed=10.4x    
[hls @ 0x55cbdae5cb80] Opening '/config/data/transcodes/9a4aaecb649a9722eec5580a7dc0c1a573.ts' for writing
frame= 4829 fps=262 q=-1.0 size=N/A time=00:03:12.27 bitrate=N/A speed=10.4x    
frame= 5010 fps=265 q=-1.0 size=N/A time=00:03:19.82 bitrate=N/A speed=10.6x    
[hls @ 0x55cbdae5cb80] Opening '/config/data/transcodes/9a4aaecb649a9722eec5580a7dc0c1a574.ts' for writing
[hls @ 0x55cbdae5cb80] Opening '/config/data/transcodes/9a4aaecb649a9722eec5580a7dc0c1a575.ts' for writing
frame= 5130 fps=264 q=-1.0 size=N/A time=00:03:24.88 bitrate=N/A speed=10.6x    
[hls @ 0x55cbdae5cb80] Opening '/config/data/transcodes/9a4aaecb649a9722eec5580a7dc0c1a576.ts' for writing
frame= 5290 fps=266 q=-1.0 size=N/A time=00:03:31.51 bitrate=N/A speed=10.6x    
[hls @ 0x55cbdae5cb80] Opening '/config/data/transcodes/9a4aaecb649a9722eec5580a7dc0c1a577.ts' for writing
frame= 5443 fps=266 q=-1.0 size=N/A time=00:03:37.91 bitrate=N/A speed=10.7x    
[hls @ 0x55cbdae5cb80] Opening '/config/data/transcodes/9a4aaecb649a9722eec5580a7dc0c1a578.ts' for writing
frame= 5563 fps=265 q=-1.0 size=N/A time=00:03:42.88 bitrate=N/A speed=10.6x    
[hls @ 0x55cbdae5cb80] Opening '/config/data/transcodes/9a4aaecb649a9722eec5580a7dc0c1a579.ts' for writing
frame= 5709 fps=266 q=-1.0 size=N/A time=00:03:48.98 bitrate=N/A speed=10.7x    
frame= 5857 fps=267 q=-1.0 size=N/A time=00:03:55.15 bitrate=N/A speed=10.7x    
[hls @ 0x55cbdae5cb80] Opening '/config/data/transcodes/9a4aaecb649a9722eec5580a7dc0c1a580.ts' for writing
frame= 5954 fps=265 q=-1.0 size=N/A time=00:03:59.25 bitrate=N/A speed=10.7x    
[hls @ 0x55cbdae5cb80] Opening '/config/data/transcodes/9a4aaecb649a9722eec5580a7dc0c1a581.ts' for writing
frame= 6108 fps=266 q=-1.0 size=N/A time=00:04:05.65 bitrate=N/A speed=10.7x    
[hls @ 0x55cbdae5cb80] Opening '/config/data/transcodes/9a4aaecb649a9722eec5580a7dc0c1a582.ts' for writing
[hls @ 0x55cbdae5cb80] Opening '/config/data/transcodes/9a4aaecb649a9722eec5580a7dc0c1a583.ts' for writing
frame= 6276 fps=267 q=-1.0 size=N/A time=00:04:12.64 bitrate=N/A speed=10.8x    
[hls @ 0x55cbdae5cb80] Opening '/config/data/transcodes/9a4aaecb649a9722eec5580a7dc0c1a584.ts' for writing
frame= 6488 fps=271 q=-1.0 size=N/A time=00:04:21.47 bitrate=N/A speed=10.9x    
[hls @ 0x55cbdae5cb80] Opening '/config/data/transcodes/9a4aaecb649a9722eec5580a7dc0c1a585.ts' for writing
frame= 6652 fps=272 q=-1.0 size=N/A time=00:04:28.32 bitrate=N/A speed=  11x    
[hls @ 0x55cbdae5cb80] Opening '/config/data/transcodes/9a4aaecb649a9722eec5580a7dc0c1a586.ts' for writing
frame= 6842 fps=274 q=-1.0 size=N/A time=00:04:36.28 bitrate=N/A speed=11.1x    
[hls @ 0x55cbdae5cb80] Opening '/config/data/transcodes/9a4aaecb649a9722eec5580a7dc0c1a587.ts' for writing
frame= 6945 fps=273 q=-1.0 size=N/A time=00:04:40.57 bitrate=N/A speed=  11x    
[hls @ 0x55cbdae5cb80] Opening '/config/data/transcodes/9a4aaecb649a9722eec5580a7dc0c1a588.ts' for writing
[hls @ 0x55cbdae5cb80] Opening '/config/data/transcodes/9a4aaecb649a9722eec5580a7dc0c1a589.ts' for writing
frame= 7084 fps=273 q=-1.0 size=N/A time=00:04:46.37 bitrate=N/A speed=  11x    
frame= 7229 fps=273 q=-1.0 size=N/A time=00:04:52.39 bitrate=N/A speed=  11x    
[hls @ 0x55cbdae5cb80] Opening '/config/data/transcodes/9a4aaecb649a9722eec5580a7dc0c1a590.ts' for writing
[hls @ 0x55cbdae5cb80] Opening '/config/data/transcodes/9a4aaecb649a9722eec5580a7dc0c1a591.ts' for writing
frame= 7480 fps=277 q=-1.0 size=N/A time=00:05:02.84 bitrate=N/A speed=11.2x    
[hls @ 0x55cbdae5cb80] Opening '/config/data/transcodes/9a4aaecb649a9722eec5580a7dc0c1a592.ts' for writing
[hls @ 0x55cbdae5cb80] Opening '/config/data/transcodes/9a4aaecb649a9722eec5580a7dc0c1a593.ts' for writing
frame= 7657 fps=277 q=-1.0 size=N/A time=00:05:10.22 bitrate=N/A speed=11.2x    
frame= 7777 fps=276 q=-1.0 size=N/A time=00:05:15.23 bitrate=N/A speed=11.2x    
[hls @ 0x55cbdae5cb80] Opening '/config/data/transcodes/9a4aaecb649a9722eec5580a7dc0c1a594.ts' for writing
frame= 7872 fps=275 q=-1.0 size=N/A time=00:05:19.22 bitrate=N/A speed=11.1x    
[hls @ 0x55cbdae5cb80] Opening '/config/data/transcodes/9a4aaecb649a9722eec5580a7dc0c1a595.ts' for writing
frame= 8070 fps=277 q=-1.0 size=N/A time=00:05:27.46 bitrate=N/A speed=11.2x    
[hls @ 0x55cbdae5cb80] Opening '/config/data/transcodes/9a4aaecb649a9722eec5580a7dc0c1a596.ts' for writing
[hls @ 0x55cbdae5cb80] Opening '/config/data/transcodes/9a4aaecb649a9722eec5580a7dc0c1a597.ts' for writing
frame= 8282 fps=279 q=-1.0 size=N/A time=00:05:36.33 bitrate=N/A speed=11.3x    
[hls @ 0x55cbdae5cb80] Opening '/config/data/transcodes/9a4aaecb649a9722eec5580a7dc0c1a598.ts' for writing
frame= 8415 fps=279 q=-1.0 size=N/A time=00:05:41.88 bitrate=N/A speed=11.3x    
[hls @ 0x55cbdae5cb80] Opening '/config/data/transcodes/9a4aaecb649a9722eec5580a7dc0c1a599.ts' for writing
frame= 8519 fps=276 q=-1.0 size=N/A time=00:05:46.23 bitrate=N/A speed=11.2x    
frame= 8657 fps=276 q=-1.0 size=N/A time=00:05:51.93 bitrate=N/A speed=11.2x    
[hls @ 0x55cbdae5cb80] Opening '/config/data/transcodes/9a4aaecb649a9722eec5580a7dc0c1a5100.ts' for writing
[hls @ 0x55cbdae5cb80] Opening '/config/data/transcodes/9a4aaecb649a9722eec5580a7dc0c1a5101.ts' for writing
frame= 8810 fps=277 q=-1.0 size=N/A time=00:05:58.33 bitrate=N/A speed=11.3x    
[hls @ 0x55cbdae5cb80] Opening '/config/data/transcodes/9a4aaecb649a9722eec5580a7dc0c1a5102.ts' for writing
frame= 8940 fps=276 q=-1.0 size=N/A time=00:06:03.77 bitrate=N/A speed=11.2x    
frame= 9114 fps=277 q=-1.0 size=N/A time=00:06:11.04 bitrate=N/A speed=11.3x    
[hls @ 0x55cbdae5cb80] Opening '/config/data/transcodes/9a4aaecb649a9722eec5580a7dc0c1a5103.ts' for writing
[hls @ 0x55cbdae5cb80] Opening '/config/data/transcodes/9a4aaecb649a9722eec5580a7dc0c1a5104.ts' for writing
frame= 9244 fps=277 q=-1.0 size=N/A time=00:06:16.46 bitrate=N/A speed=11.3x    
frame= 9460 fps=279 q=-1.0 size=N/A time=00:06:25.46 bitrate=N/A speed=11.4x    
[hls @ 0x55cbdae5cb80] Opening '/config/data/transcodes/9a4aaecb649a9722eec5580a7dc0c1a5105.ts' for writing
frame= 9627 fps=280 q=-1.0 size=N/A time=00:06:32.44 bitrate=N/A speed=11.4x    
[hls @ 0x55cbdae5cb80] Opening '/config/data/transcodes/9a4aaecb649a9722eec5580a7dc0c1a5106.ts' for writing
[hls @ 0x55cbdae5cb80] Opening '/config/data/transcodes/9a4aaecb649a9722eec5580a7dc0c1a5107.ts' for writing
frame= 9812 fps=281 q=-1.0 size=N/A time=00:06:40.12 bitrate=N/A speed=11.5x    
[hls @ 0x55cbdae5cb80] Opening '/config/data/transcodes/9a4aaecb649a9722eec5580a7dc0c1a5108.ts' for writing
frame= 9960 fps=282 q=-1.0 size=N/A time=00:06:46.33 bitrate=N/A speed=11.5x    
[hls @ 0x55cbdae5cb80] Opening '/config/data/transcodes/9a4aaecb649a9722eec5580a7dc0c1a5109.ts' for writing
frame=10114 fps=282 q=-1.0 size=N/A time=00:06:52.75 bitrate=N/A speed=11.5x    
[hls @ 0x55cbdae5cb80] Opening '/config/data/transcodes/9a4aaecb649a9722eec5580a7dc0c1a5110.ts' for writing
[hls @ 0x55cbdae5cb80] Opening '/config/data/transcodes/9a4aaecb649a9722eec5580a7dc0c1a5111.ts' for writing
frame=10361 fps=285 q=-1.0 size=N/A time=00:07:03.05 bitrate=N/A speed=11.6x    
[hls @ 0x55cbdae5cb80] Opening '/config/data/transcodes/9a4aaecb649a9722eec5580a7dc0c1a5112.ts' for writing
frame=10518 fps=285 q=-1.0 size=N/A time=00:07:09.60 bitrate=N/A speed=11.6x    
[hls @ 0x55cbdae5cb80] Opening '/config/data/transcodes/9a4aaecb649a9722eec5580a7dc0c1a5113.ts' for writing
frame=10670 fps=285 q=-1.0 size=N/A time=00:07:15.94 bitrate=N/A speed=11.6x    
[hls @ 0x55cbdae5cb80] Opening '/config/data/transcodes/9a4aaecb649a9722eec5580a7dc0c1a5114.ts' for writing
frame=10824 fps=285 q=-1.0 size=N/A time=00:07:22.32 bitrate=N/A speed=11.6x    
[hls @ 0x55cbdae5cb80] Opening '/config/data/transcodes/9a4aaecb649a9722eec5580a7dc0c1a5115.ts' for writing
[hls @ 0x55cbdae5cb80] Opening '/config/data/transcodes/9a4aaecb649a9722eec5580a7dc0c1a5116.ts' for writing
frame=10996 fps=285 q=-1.0 size=N/A time=00:07:29.49 bitrate=N/A speed=11.7x    
[hls @ 0x55cbdae5cb80] Opening '/config/data/transcodes/9a4aaecb649a9722eec5580a7dc0c1a5117.ts' for writing
frame=11142 fps=285 q=-1.0 size=N/A time=00:07:35.63 bitrate=N/A speed=11.7x    
[hls @ 0x55cbdae5cb80] Opening '/config/data/transcodes/9a4aaecb649a9722eec5580a7dc0c1a5118.ts' for writing
frame=11298 fps=285 q=-1.0 size=N/A time=00:07:42.14 bitrate=N/A speed=11.7x    
[hls @ 0x55cbdae5cb80] Opening '/config/data/transcodes/9a4aaecb649a9722eec5580a7dc0c1a5119.ts' for writing
frame=11481 fps=286 q=-1.0 size=N/A time=00:07:49.77 bitrate=N/A speed=11.7x    
[hls @ 0x55cbdae5cb80] Opening '/config/data/transcodes/9a4aaecb649a9722eec5580a7dc0c1a5120.ts' for writing
frame=11546 fps=284 q=-1.0 size=N/A time=00:07:52.48 bitrate=N/A speed=11.6x    
frame=11622 fps=283 q=-1.0 size=N/A time=00:07:55.62 bitrate=N/A speed=11.6x    
[hls @ 0x55cbdae5cb80] Opening '/config/data/transcodes/9a4aaecb649a9722eec5580a7dc0c1a5121.ts' for writing
frame=11754 fps=282 q=-1.0 size=N/A time=00:08:01.14 bitrate=N/A speed=11.5x    
frame=11995 fps=284 q=-1.0 size=N/A time=00:08:11.19 bitrate=N/A speed=11.6x    
[hls @ 0x55cbdae5cb80] Opening '/config/data/transcodes/9a4aaecb649a9722eec5580a7dc0c1a5122.ts' for writing
[hls @ 0x55cbdae5cb80] Opening '/config/data/transcodes/9a4aaecb649a9722eec5580a7dc0c1a5123.ts' for writing
frame=12185 fps=285 q=-1.0 size=N/A time=00:08:19.13 bitrate=N/A speed=11.7x    
[hls @ 0x55cbdae5cb80] Opening '/config/data/transcodes/9a4aaecb649a9722eec5580a7dc0c1a5124.ts' for writing
frame=12353 fps=285 q=-1.0 size=N/A time=00:08:26.08 bitrate=N/A speed=11.7x    
[hls @ 0x55cbdae5cb80] Opening '/config/data/transcodes/9a4aaecb649a9722eec5580a7dc0c1a5125.ts' for writing
[hls @ 0x55cbdae5cb80] Opening '/config/data/transcodes/9a4aaecb649a9722eec5580a7dc0c1a5126.ts' for writing
frame=12475 fps=284 q=-1.0 size=N/A time=00:08:31.22 bitrate=N/A speed=11.7x    
[hls @ 0x55cbdae5cb80] Opening '/config/data/transcodes/9a4aaecb649a9722eec5580a7dc0c1a5127.ts' for writing
frame=12668 fps=286 q=-1.0 size=N/A time=00:08:39.25 bitrate=N/A speed=11.7x    
[hls @ 0x55cbdae5cb80] Opening '/config/data/transcodes/9a4aaecb649a9722eec5580a7dc0c1a5128.ts' for writing
frame=12867 fps=287 q=-1.0 size=N/A time=00:08:47.54 bitrate=N/A speed=11.8x    
[hls @ 0x55cbdae5cb80] Opening '/config/data/transcodes/9a4aaecb649a9722eec5580a7dc0c1a5129.ts' for writing
frame=13001 fps=287 q=-1.0 size=N/A time=00:08:53.15 bitrate=N/A speed=11.8x    
[hls @ 0x55cbdae5cb80] Opening '/config/data/transcodes/9a4aaecb649a9722eec5580a7dc0c1a5130.ts' for writing
[hls @ 0x55cbdae5cb80] Opening '/config/data/transcodes/9a4aaecb649a9722eec5580a7dc0c1a5131.ts' for writing
frame=13137 fps=286 q=-1.0 size=N/A time=00:08:58.79 bitrate=N/A speed=11.7x    
[hls @ 0x55cbdae5cb80] Opening '/config/data/transcodes/9a4aaecb649a9722eec5580a7dc0c1a5132.ts' for writing
frame=13333 fps=287 q=-1.0 size=N/A time=00:09:06.96 bitrate=N/A speed=11.8x    
[hls @ 0x55cbdae5cb80] Opening '/config/data/transcodes/9a4aaecb649a9722eec5580a7dc0c1a5133.ts' for writing
frame=13519 fps=288 q=-1.0 size=N/A time=00:09:14.72 bitrate=N/A speed=11.8x    
[hls @ 0x55cbdae5cb80] Opening '/config/data/transcodes/9a4aaecb649a9722eec5580a7dc0c1a5134.ts' for writing
frame=13682 fps=288 q=-1.0 size=N/A time=00:09:21.55 bitrate=N/A speed=11.8x    
[hls @ 0x55cbdae5cb80] Opening '/config/data/transcodes/9a4aaecb649a9722eec5580a7dc0c1a5135.ts' for writing
[hls @ 0x55cbdae5cb80] Opening '/config/data/transcodes/9a4aaecb649a9722eec5580a7dc0c1a5136.ts' for writing
frame=13886 fps=290 q=-1.0 size=N/A time=00:09:30.08 bitrate=N/A speed=11.9x    
[hls @ 0x55cbdae5cb80] Opening '/config/data/transcodes/9a4aaecb649a9722eec5580a7dc0c1a5137.ts' for writing
frame=14113 fps=291 q=-1.0 size=N/A time=00:09:39.53 bitrate=N/A speed=11.9x    
[hls @ 0x55cbdae5cb80] Opening '/config/data/transcodes/9a4aaecb649a9722eec5580a7dc0c1a5138.ts' for writing
[hls @ 0x55cbdae5cb80] Opening '/config/data/transcodes/9a4aaecb649a9722eec5580a7dc0c1a5139.ts' for writing
frame=14354 fps=293 q=-1.0 size=N/A time=00:09:49.58 bitrate=N/A speed=  12x    
[hls @ 0x55cbdae5cb80] Opening '/config/data/transcodes/9a4aaecb649a9722eec5580a7dc0c1a5140.ts' for writing
[hls @ 0x55cbdae5cb80] Opening '/config/data/transcodes/9a4aaecb649a9722eec5580a7dc0c1a5141.ts' for writing
frame=14627 fps=295 q=-1.0 size=N/A time=00:10:00.93 bitrate=N/A speed=12.1x    
[hls @ 0x55cbdae5cb80] Opening '/config/data/transcodes/9a4aaecb649a9722eec5580a7dc0c1a5142.ts' for writing
[hls @ 0x55cbdae5cb80] Opening '/config/data/transcodes/9a4aaecb649a9722eec5580a7dc0c1a5143.ts' for writing
frame=14893 fps=297 q=-1.0 size=N/A time=00:10:12.02 bitrate=N/A speed=12.2x    
[hls @ 0x55cbdae5cb80] Opening '/config/data/transcodes/9a4aaecb649a9722eec5580a7dc0c1a5144.ts' for writing
frame=15151 fps=299 q=-1.0 size=N/A time=00:10:22.84 bitrate=N/A speed=12.3x    
[hls @ 0x55cbdae5cb80] Opening '/config/data/transcodes/9a4aaecb649a9722eec5580a7dc0c1a5145.ts' for writing
[hls @ 0x55cbdae5cb80] Opening '/config/data/transcodes/9a4aaecb649a9722eec5580a7dc0c1a5146.ts' for writing
frame=15428 fps=302 q=-1.0 size=N/A time=00:10:34.36 bitrate=N/A speed=12.4x    
[hls @ 0x55cbdae5cb80] Opening '/config/data/transcodes/9a4aaecb649a9722eec5580a7dc0c1a5147.ts' for writing
[hls @ 0x55cbdae5cb80] Opening '/config/data/transcodes/9a4aaecb649a9722eec5580a7dc0c1a5148.ts' for writing
frame=15664 fps=303 q=-1.0 size=N/A time=00:10:44.24 bitrate=N/A speed=12.5x    
[hls @ 0x55cbdae5cb80] Opening '/config/data/transcodes/9a4aaecb649a9722eec5580a7dc0c1a5149.ts' for writing
frame=15866 fps=304 q=-1.0 size=N/A time=00:10:52.66 bitrate=N/A speed=12.5x    
[hls @ 0x55cbdae5cb80] Opening '/config/data/transcodes/9a4aaecb649a9722eec5580a7dc0c1a5150.ts' for writing
[hls @ 0x55cbdae5cb80] Opening '/config/data/transcodes/9a4aaecb649a9722eec5580a7dc0c1a5151.ts' for writing
[hls @ 0x55cbdae5cb80] Opening '/config/data/transcodes/9a4aaecb649a9722eec5580a7dc0c1a5152.ts' for writing
frame=16120 fps=306 q=-1.0 size=N/A time=00:11:03.22 bitrate=N/A speed=12.6x    
[hls @ 0x55cbdae5cb80] Opening '/config/data/transcodes/9a4aaecb649a9722eec5580a7dc0c1a5153.ts' for writing
frame=16329 fps=307 q=-1.0 size=N/A time=00:11:11.97 bitrate=N/A speed=12.6x    
[hls @ 0x55cbdae5cb80] Opening '/config/data/transcodes/9a4aaecb649a9722eec5580a7dc0c1a5154.ts' for writing
frame=16561 fps=308 q=-1.0 size=N/A time=00:11:21.59 bitrate=N/A speed=12.7x    
[hls @ 0x55cbdae5cb80] Opening '/config/data/transcodes/9a4aaecb649a9722eec5580a7dc0c1a5155.ts' for writing
frame=16796 fps=310 q=-1.0 size=N/A time=00:11:31.43 bitrate=N/A speed=12.8x    
[hls @ 0x55cbdae5cb80] Opening '/config/data/transcodes/9a4aaecb649a9722eec5580a7dc0c1a5156.ts' for writing
[hls @ 0x55cbdae5cb80] Opening '/config/data/transcodes/9a4aaecb649a9722eec5580a7dc0c1a5157.ts' for writing
[hls @ 0x55cbdae5cb80] Opening '/config/data/transcodes/9a4aaecb649a9722eec5580a7dc0c1a5158.ts' for writing
frame=17071 fps=312 q=-1.0 size=N/A time=00:11:42.86 bitrate=N/A speed=12.9x    
[hls @ 0x55cbdae5cb80] Opening '/config/data/transcodes/9a4aaecb649a9722eec5580a7dc0c1a5159.ts' for writing
[hls @ 0x55cbdae5cb80] Opening '/config/data/transcodes/9a4aaecb649a9722eec5580a7dc0c1a5160.ts' for writing
frame=17378 fps=315 q=-1.0 size=N/A time=00:11:55.73 bitrate=N/A speed=  13x    
[hls @ 0x55cbdae5cb80] Opening '/config/data/transcodes/9a4aaecb649a9722eec5580a7dc0c1a5161.ts' for writing
frame=17673 fps=317 q=-1.0 size=N/A time=00:12:07.97 bitrate=N/A speed=13.1x    
[hls @ 0x55cbdae5cb80] Opening '/config/data/transcodes/9a4aaecb649a9722eec5580a7dc0c1a5162.ts' for writing
[hls @ 0x55cbdae5cb80] Opening '/config/data/transcodes/9a4aaecb649a9722eec5580a7dc0c1a5163.ts' for writing
frame=17964 fps=320 q=-1.0 size=N/A time=00:12:20.11 bitrate=N/A speed=13.2x    
[hls @ 0x55cbdae5cb80] Opening '/config/data/transcodes/9a4aaecb649a9722eec5580a7dc0c1a5164.ts' for writing
[hls @ 0x55cbdae5cb80] Opening '/config/data/transcodes/9a4aaecb649a9722eec5580a7dc0c1a5165.ts' for writing
frame=18240 fps=322 q=-1.0 size=N/A time=00:12:31.63 bitrate=N/A speed=13.3x    
[hls @ 0x55cbdae5cb80] Opening '/config/data/transcodes/9a4aaecb649a9722eec5580a7dc0c1a5166.ts' for writing
[hls @ 0x55cbdae5cb80] Opening '/config/data/transcodes/9a4aaecb649a9722eec5580a7dc0c1a5167.ts' for writing
[hls @ 0x55cbdae5cb80] Opening '/config/data/transcodes/9a4aaecb649a9722eec5580a7dc0c1a5168.ts' for writing
frame=18508 fps=324 q=-1.0 size=N/A time=00:12:42.81 bitrate=N/A speed=13.3x    
frame=18761 fps=325 q=-1.0 size=N/A time=00:12:53.37 bitrate=N/A speed=13.4x    
[hls @ 0x55cbdae5cb80] Opening '/config/data/transcodes/9a4aaecb649a9722eec5580a7dc0c1a5169.ts' for writing
[hls @ 0x55cbdae5cb80] Opening '/config/data/transcodes/9a4aaecb649a9722eec5580a7dc0c1a5170.ts' for writing
frame=19043 fps=327 q=-1.0 size=N/A time=00:13:05.12 bitrate=N/A speed=13.5x    
[hls @ 0x55cbdae5cb80] Opening '/config/data/transcodes/9a4aaecb649a9722eec5580a7dc0c1a5171.ts' for writing
frame=19282 fps=329 q=-1.0 size=N/A time=00:13:15.13 bitrate=N/A speed=13.5x    
[hls @ 0x55cbdae5cb80] Opening '/config/data/transcodes/9a4aaecb649a9722eec5580a7dc0c1a5172.ts' for writing
[hls @ 0x55cbdae5cb80] Opening '/config/data/transcodes/9a4aaecb649a9722eec5580a7dc0c1a5173.ts' for writing
frame=19518 fps=330 q=-1.0 size=N/A time=00:13:24.98 bitrate=N/A speed=13.6x    
[hls @ 0x55cbdae5cb80] Opening '/config/data/transcodes/9a4aaecb649a9722eec5580a7dc0c1a5174.ts' for writing
[hls @ 0x55cbdae5cb80] Opening '/config/data/transcodes/9a4aaecb649a9722eec5580a7dc0c1a5175.ts' for writing
[hls @ 0x55cbdae5cb80] Opening '/config/data/transcodes/9a4aaecb649a9722eec5580a7dc0c1a5176.ts' for writing
frame=19797 fps=332 q=-1.0 size=N/A time=00:13:36.57 bitrate=N/A speed=13.7x    
[hls @ 0x55cbdae5cb80] Opening '/config/data/transcodes/9a4aaecb649a9722eec5580a7dc0c1a5177.ts' for writing
[hls @ 0x55cbdae5cb80] Opening '/config/data/transcodes/9a4aaecb649a9722eec5580a7dc0c1a5178.ts' for writing
[hls @ 0x55cbdae5cb80] Opening '/config/data/transcodes/9a4aaecb649a9722eec5580a7dc0c1a5179.ts' for writing
frame=20091 fps=333 q=-1.0 size=N/A time=00:13:48.88 bitrate=N/A speed=13.8x    
[hls @ 0x55cbdae5cb80] Opening '/config/data/transcodes/9a4aaecb649a9722eec5580a7dc0c1a5180.ts' for writing
[hls @ 0x55cbdae5cb80] Opening '/config/data/transcodes/9a4aaecb649a9722eec5580a7dc0c1a5181.ts' for writing
frame=20356 fps=335 q=-1.0 size=N/A time=00:13:59.93 bitrate=N/A speed=13.8x    
[hls @ 0x55cbdae5cb80] Opening '/config/data/transcodes/9a4aaecb649a9722eec5580a7dc0c1a5182.ts' for writing
[hls @ 0x55cbdae5cb80] Opening '/config/data/transcodes/9a4aaecb649a9722eec5580a7dc0c1a5183.ts' for writing
frame=20654 fps=337 q=-1.0 size=N/A time=00:14:12.34 bitrate=N/A speed=13.9x    
[hls @ 0x55cbdae5cb80] Opening '/config/data/transcodes/9a4aaecb649a9722eec5580a7dc0c1a5184.ts' for writing
frame=20879 fps=338 q=-1.0 size=N/A time=00:14:21.73 bitrate=N/A speed=13.9x    
[hls @ 0x55cbdae5cb80] Opening '/config/data/transcodes/9a4aaecb649a9722eec5580a7dc0c1a5185.ts' for writing
[hls @ 0x55cbdae5cb80] Opening '/config/data/transcodes/9a4aaecb649a9722eec5580a7dc0c1a5186.ts' for writing
frame=21124 fps=339 q=-1.0 size=N/A time=00:14:31.91 bitrate=N/A speed=  14x    
[hls @ 0x55cbdae5cb80] Opening '/config/data/transcodes/9a4aaecb649a9722eec5580a7dc0c1a5187.ts' for writing
[hls @ 0x55cbdae5cb80] Opening '/config/data/transcodes/9a4aaecb649a9722eec5580a7dc0c1a5188.ts' for writing
frame=21412 fps=341 q=-1.0 size=N/A time=00:14:43.92 bitrate=N/A speed=14.1x    
[hls @ 0x55cbdae5cb80] Opening '/config/data/transcodes/9a4aaecb649a9722eec5580a7dc0c1a5189.ts' for writing
[hls @ 0x55cbdae5cb80] Opening '/config/data/transcodes/9a4aaecb649a9722eec5580a7dc0c1a5190.ts' for writing
frame=21641 fps=342 q=-1.0 size=N/A time=00:14:53.52 bitrate=N/A speed=14.1x    
[hls @ 0x55cbdae5cb80] Opening '/config/data/transcodes/9a4aaecb649a9722eec5580a7dc0c1a5191.ts' for writing
frame=21819 fps=342 q=-1.0 size=N/A time=00:15:00.94 bitrate=N/A speed=14.1x    
[hls @ 0x55cbdae5cb80] Opening '/config/data/transcodes/9a4aaecb649a9722eec5580a7dc0c1a5192.ts' for writing
frame=21904 fps=340 q=-1.0 size=N/A time=00:15:04.44 bitrate=N/A speed=  14x    
frame=22033 fps=340 q=-1.0 size=N/A time=00:15:09.86 bitrate=N/A speed=  14x    
[hls @ 0x55cbdae5cb80] Opening '/config/data/transcodes/9a4aaecb649a9722eec5580a7dc0c1a5193.ts' for writing
[hls @ 0x55cbdae5cb80] Opening '/config/data/transcodes/9a4aaecb649a9722eec5580a7dc0c1a5194.ts' for writing
frame=22240 fps=340 q=-1.0 size=N/A time=00:15:18.46 bitrate=N/A speed=  14x    
[hls @ 0x55cbdae5cb80] Opening '/config/data/transcodes/9a4aaecb649a9722eec5580a7dc0c1a5195.ts' for writing
frame=22422 fps=339 q=-1.0 size=N/A time=00:15:26.09 bitrate=N/A speed=  14x    
[hls @ 0x55cbdae5cb80] Opening '/config/data/transcodes/9a4aaecb649a9722eec5580a7dc0c1a5196.ts' for writing
[hls @ 0x55cbdae5cb80] Opening '/config/data/transcodes/9a4aaecb649a9722eec5580a7dc0c1a5197.ts' for writing
frame=22731 fps=341 q=-1.0 size=N/A time=00:15:38.94 bitrate=N/A speed=14.1x    
[hls @ 0x55cbdae5cb80] Opening '/config/data/transcodes/9a4aaecb649a9722eec5580a7dc0c1a5198.ts' for writing
[hls @ 0x55cbdae5cb80] Opening '/config/data/transcodes/9a4aaecb649a9722eec5580a7dc0c1a5199.ts' for writing
frame=23029 fps=343 q=-1.0 size=N/A time=00:15:51.42 bitrate=N/A speed=14.2x    
[hls @ 0x55cbdae5cb80] Opening '/config/data/transcodes/9a4aaecb649a9722eec5580a7dc0c1a5200.ts' for writing
frame=23250 fps=344 q=-1.0 size=N/A time=00:16:00.63 bitrate=N/A speed=14.2x    
[hls @ 0x55cbdae5cb80] Opening '/config/data/transcodes/9a4aaecb649a9722eec5580a7dc0c1a5201.ts' for writing
[hls @ 0x55cbdae5cb80] Opening '/config/data/transcodes/9a4aaecb649a9722eec5580a7dc0c1a5202.ts' for writing
frame=23483 fps=345 q=-1.0 size=N/A time=00:16:10.34 bitrate=N/A speed=14.3x    
[hls @ 0x55cbdae5cb80] Opening '/config/data/transcodes/9a4aaecb649a9722eec5580a7dc0c1a5203.ts' for writing
[hls @ 0x55cbdae5cb80] Opening '/config/data/transcodes/9a4aaecb649a9722eec5580a7dc0c1a5204.ts' for writing
frame=23705 fps=346 q=-1.0 size=N/A time=00:16:19.55 bitrate=N/A speed=14.3x    
[hls @ 0x55cbdae5cb80] Opening '/config/data/transcodes/9a4aaecb649a9722eec5580a7dc0c1a5205.ts' for writing
[hls @ 0x55cbdae5cb80] Opening '/config/data/transcodes/9a4aaecb649a9722eec5580a7dc0c1a5206.ts' for writing
frame=23941 fps=347 q=-1.0 size=N/A time=00:16:29.45 bitrate=N/A speed=14.3x    
[hls @ 0x55cbdae5cb80] Opening '/config/data/transcodes/9a4aaecb649a9722eec5580a7dc0c1a5207.ts' for writing
frame=24156 fps=347 q=-1.0 size=N/A time=00:16:38.37 bitrate=N/A speed=14.4x    
[hls @ 0x55cbdae5cb80] Opening '/config/data/transcodes/9a4aaecb649a9722eec5580a7dc0c1a5208.ts' for writing
frame=24348 fps=347 q=-1.0 size=N/A time=00:16:46.39 bitrate=N/A speed=14.4x    
[hls @ 0x55cbdae5cb80] Opening '/config/data/transcodes/9a4aaecb649a9722eec5580a7dc0c1a5209.ts' for writing
[hls @ 0x55cbdae5cb80] Opening '/config/data/transcodes/9a4aaecb649a9722eec5580a7dc0c1a5210.ts' for writing
frame=24570 fps=348 q=-1.0 size=N/A time=00:16:55.69 bitrate=N/A speed=14.4x    
[hls @ 0x55cbdae5cb80] Opening '/config/data/transcodes/9a4aaecb649a9722eec5580a7dc0c1a5211.ts' for writing
[hls @ 0x55cbdae5cb80] Opening '/config/data/transcodes/9a4aaecb649a9722eec5580a7dc0c1a5212.ts' for writing
frame=24825 fps=349 q=-1.0 size=N/A time=00:17:06.32 bitrate=N/A speed=14.4x    
[hls @ 0x55cbdae5cb80] Opening '/config/data/transcodes/9a4aaecb649a9722eec5580a7dc0c1a5213.ts' for writing
frame=25079 fps=350 q=-1.0 size=N/A time=00:17:16.92 bitrate=N/A speed=14.5x    
[hls @ 0x55cbdae5cb80] Opening '/config/data/transcodes/9a4aaecb649a9722eec5580a7dc0c1a5214.ts' for writing
[hls @ 0x55cbdae5cb80] Opening '/config/data/transcodes/9a4aaecb649a9722eec5580a7dc0c1a5215.ts' for writing
frame=25359 fps=352 q=-1.0 size=N/A time=00:17:28.55 bitrate=N/A speed=14.5x    
[hls @ 0x55cbdae5cb80] Opening '/config/data/transcodes/9a4aaecb649a9722eec5580a7dc0c1a5216.ts' for writing
[hls @ 0x55cbdae5cb80] Opening '/config/data/transcodes/9a4aaecb649a9722eec5580a7dc0c1a5217.ts' for writing
frame=25633 fps=353 q=-1.0 size=N/A time=00:17:40.02 bitrate=N/A speed=14.6x    
[hls @ 0x55cbdae5cb80] Opening '/config/data/transcodes/9a4aaecb649a9722eec5580a7dc0c1a5218.ts' for writing
frame=25926 fps=355 q=-1.0 size=N/A time=00:17:52.21 bitrate=N/A speed=14.7x    
[hls @ 0x55cbdae5cb80] Opening '/config/data/transcodes/9a4aaecb649a9722eec5580a7dc0c1a5219.ts' for writing
frame=26226 fps=356 q=-1.0 size=N/A time=00:18:04.71 bitrate=N/A speed=14.7x    
[hls @ 0x55cbdae5cb80] Opening '/config/data/transcodes/9a4aaecb649a9722eec5580a7dc0c1a5220.ts' for writing
[hls @ 0x55cbdae5cb80] Opening '/config/data/transcodes/9a4aaecb649a9722eec5580a7dc0c1a5221.ts' for writing
[hls @ 0x55cbdae5cb80] Opening '/config/data/transcodes/9a4aaecb649a9722eec5580a7dc0c1a5222.ts' for writing
frame=26538 fps=358 q=-1.0 size=N/A time=00:18:17.72 bitrate=N/A speed=14.8x    
[hls @ 0x55cbdae5cb80] Opening '/config/data/transcodes/9a4aaecb649a9722eec5580a7dc0c1a5223.ts' for writing
frame=26599 fps=359 q=-1.0 Lsize=N/A time=00:18:24.42 bitrate=N/A speed=14.9x    
video:276188kB audio:17397kB subtitle:0kB other streams:0kB global headers:0kB muxing overhead: unknown